<!-- icon666.com - MILLIONS vector ICONS FREE --><svg clip-rule="evenodd" fill-rule="evenodd" stroke-linejoin="round" stroke-miterlimit="2" viewBox="0 0 64 64" xmlns="http://www.w3.org/2000/svg"><g transform="translate(-448 -576)"><g id="Icon"><g transform="translate(264 512)"><path d="m232 125h8c2.761 0 5-2.239 5-5v-48c0-2.761-2.239-5-5-5h-32c-2.761 0-5 2.239-5 5v16c0 .552.448 1 1 1s1-.448 1-1v-16c0-1.657 1.343-3 3-3h32c1.657 0 3 1.343 3 3v48c0 1.657-1.343 3-3 3h-8c-.552 0-1 .448-1 1s.448 1 1 1z"></path></g><g transform="translate(264 512)"><path d="m220 73h8c.552 0 1-.448 1-1s-.448-1-1-1h-8c-.552 0-1 .448-1 1s.448 1 1 1z"></path></g><path d="m471 603.264v-13.264c0-1.657 1.343-3 3-3h28c1.657 0 3 1.343 3 3v36c0 1.657-1.343 3-3 3h-19.579c-1.575 2.517-3.791 4.594-6.419 6h15.998c.552 0 1 .448 1 1s-.448 1-1 1h-24c-9.383 0-17-7.617-17-17s7.617-17 17-17c1.024 0 2.026.091 3 .264zm-3 1.736c8.279 0 15 6.721 15 15s-6.721 15-15 15-15-6.721-15-15 6.721-15 15-15zm15.494 22h18.506c.552 0 1-.448 1-1v-36c0-.552-.448-1-1-1-5.746 0-22.254 0-28 0-.552 0-1 .448-1 1v13.749c6.945 2.136 12 8.608 12 16.251 0 2.495-.539 4.865-1.506 7z"></path><g transform="translate(256 512)"><path d="m205 104v.002c0 1.656 1.342 2.998 2.998 2.998h2.002c.552 0 1-.448 1-1v-4c0-.552-.448-1-1-1h-2c-1.657 0-3 1.343-3 3zm2 0v.002c0 .551.447.998.998.998h1.002v-2h-1c-.552 0-1 .448-1 1z"></path></g><g transform="translate(256 512)"><path d="m219 112.002v-.002c0-1.657-1.343-3-3-3h-2c-.552 0-1 .448-1 1v4c0 .552.448 1 1 1h2.002c1.656 0 2.998-1.342 2.998-2.998zm-2 0v-.002c0-.552-.448-1-1-1h-1v2h1.002c.551 0 .998-.447.998-.998z"></path></g><path d="m457 616v.002c0 2.014.85 3.829 2.212 5.105-1.274.346-2.212 1.512-2.212 2.895 0 3.865 3.133 6.998 6.998 6.998h1.002c0 1.656 1.344 3 3 3s3-1.344 3-3h1.002c3.865 0 6.998-3.133 6.998-6.998v-.002c0-2.013-.85-3.828-2.211-5.105 1.273-.347 2.211-1.512 2.211-2.895 0-3.866-3.134-7-7-7h-1c0-1.656-1.344-3-3-3s-3 1.344-3 3h-1c-3.866 0-7 3.134-7 7zm20 8.002v-.002c0-2.761-2.239-5-5-5h-2c-.552 0-1-.448-1-1v-4c0-.552.448-1 1-1h2c1.657 0 3 1.343 3 3 0 .552.448 1 1 1s1-.448 1-1c0-2.761-2.239-5-5-5h-2c-.552 0-1-.448-1-1v-1c0-.552-.448-1-1-1s-1 .448-1 1v1c0 .552-.448 1-1 1h-2c-2.761 0-5 2.239-5 5v.002c0 2.76 2.238 4.998 4.998 4.998h2.002c.552 0 1 .448 1 1v4c0 .552-.448 1-1 1h-2.002c-1.656 0-2.998-1.342-2.998-2.998 0-.552-.448-1-1-1s-1 .448-1 1c0 2.76 2.238 4.998 4.998 4.998h2.002c.552 0 1 .448 1 1v1c0 .552.448 1 1 1s1-.448 1-1v-1c0-.552.448-1 1-1h2.002c2.76 0 4.998-2.238 4.998-4.998zm-14.211-1.106c.136.342.211.715.211 1.106 0 .551.447.998.998.998h1.002v-2h-1.002c-.412 0-.816-.036-1.209-.104zm10.421-5.791c-.135-.342-.21-.715-.21-1.105 0-.552-.448-1-1-1h-1v2h1c.413 0 .817.036 1.21.105z"></path></g></g></svg>